# xmcd CD database file
#
# Track frame offsets:
#	150
#	58664
#	78765
#	106057
#	132725
#	156240
#	175090
#	198010
#	215073
#	240273
#	253244
#	296192
#
# Disc length: 4320 seconds
#
# Revision: 0
# Processed by: cddbd v1.4PL0 Copyright (c) Steve Scherf et al.
# Submitted via: CDex 1.50Beta7
#
DISCID=aa10de0c
DTITLE=Various Artist - Jazz Highlights, Vol 2
DYEAR=1900
DGENRE=Jazz
TTITLE0=Hannes Clauss Quartet:Walk
TTITLE1=Florian Poser,Klaus Ignatzek-Duo:Mandevilla
TTITLE2=O'Mara,Attig,Roggenkamp:Chase
TTITLE3=Buggy Braune Quartett:Out of Innovation
TTITLE4=Uwe Kropinski,Volker Schlott:Easy
TTITLE5=Martin Classen Quartet:Stop and Go
TTITLE6=Acoustic Art:Pigeons
TTITLE7=Das Boese Ding:Themroe
TTITLE8=Axel Zinowsky Quartet:Down to the Earth
TTITLE9=Reedstorm Saxophone Quartet Junior Blue
TTITLE10=Blow Up:Spring Dance
TTITLE11=Loftline:Turkey Waltz
EXTD=
EXTT0=
EXTT1=
EXTT2=
EXTT3=
EXTT4=
EXTT5=
EXTT6=
EXTT7=
EXTT8=
EXTT9=
EXTT10=
EXTT11=
PLAYORDER=
